<?xml version="1.0" encoding="UTF-8"?>
<svg id="Capa_1" data-name="Capa 1" xmlns="http://www.w3.org/2000/svg" viewBox="0 0 30 30">
  <defs>
    <style>
      .cls-1 {
        fill: #4c4c4c;
        stroke-width: 0px;
      }
    </style>
  </defs>
  <path class="cls-1" d="M14.97,5c3.27.12,6.48.21,9.67.37,3.19.16,4.85,1.74,5.13,4.8.36,3.9.37,7.8-.01,11.7-.08.83-.35,1.67-.71,2.43-.75,1.57-2.17,2.27-3.9,2.38-6.62.43-13.23.41-19.85,0-.41-.03-.82-.08-1.22-.16-1.78-.36-3.07-1.33-3.47-3.06-.34-1.52-.54-3.09-.56-4.64-.04-2.83.05-5.66.2-8.48.04-.86.33-1.75.71-2.54.78-1.63,2.26-2.34,4.06-2.42,3.34-.15,6.67-.26,9.94-.39ZM14.94,6.7c-3.23.13-6.55.24-9.87.39-1.12.05-2.08.46-2.56,1.5-.25.54-.45,1.14-.5,1.73-.36,3.84-.38,7.69,0,11.53.21,2.15,1.11,2.94,3.33,3.14.08,0,.16.01.23.02,6.46.38,12.92.39,19.38-.01,1.59-.1,2.47-.74,2.81-2.25.25-1.11.39-2.27.4-3.42,0-3-.01-6-.17-8.99-.12-2.27-1.13-3.16-3.49-3.27-3.16-.16-6.32-.25-9.57-.37Z"/>
  <path class="cls-1" d="M11.19,15.7c0-1.07-.01-2.15,0-3.22.02-1.21.92-1.71,2.03-1.13,2.05,1.08,4.1,2.17,6.16,3.24.49.26.88.59.88,1.17,0,.58-.37.91-.87,1.17-2.03,1.05-4.05,2.1-6.08,3.15-1.25.64-2.11.15-2.12-1.22,0-1.05,0-2.11,0-3.16ZM13,13.18v5.13c1.65-.86,3.24-1.68,4.9-2.55-1.67-.88-3.25-1.72-4.9-2.59Z"/>
</svg>