<?xml version="1.0" encoding="UTF-8"?>
<svg id="Capa_1" data-name="Capa 1" xmlns="http://www.w3.org/2000/svg" viewBox="0 0 100 100">
  <defs>
    <style>
      .cls-1 {
        fill: #f6f6f6;
      }

      .cls-1, .cls-2 {
        stroke-width: 0px;
      }

      .cls-2 {
        fill: #fff;
      }
    </style>
  </defs>
  <g id="nost">
    <path class="cls-2" d="M99.05,4.99l.04-.4c-4.03-.73-7.56-2.4-11.1-4.12-2.37-1.14-4.81-.11-5.84,2.15-1.82,3.99-1.05,7.66,2.15,10.93,1.9,1.94,4.32,3.36,6.49,5.03,3.13,2.42,4,6.04,2.28,9.31-1.56,2.97-5.19,4.52-9.33,3.93-.99-.14-2.05-.42-2.96-.1-2.22.79-3.96.08-5.71-1.01-7.11-4.44-14.99-5.02-23.23-3.39-5.57,1.11-10.59,3.45-15.62,5.72-2.89,1.31-5.87,2.28-9.13,2.57-2.44.21-4.88.09-7.32.12-.85.01-1.66.11-1.37,1.14.31,1.13-.42.83-1.09.68-6.4-1.42-12.8,1.09-15.87,6.26-.62,1.04-1.25,2.08-1.4,3.27-.15,1.21.2,1.46,1.45.98.87-.33,1.71-.71,2.58-1.03.33-.12.74-.36,1.06,0,.23.25.05.57-.06.84-.48,1.15-.97,2.3-.9,3.55.04.65.12,1.33.94,1.58.77.23,1.26-.29,1.68-.73.8-.83,1.72-1.53,2.65-2.22.31-.23.65-.5,1.02-.27.41.25.1.64-.02.94-.34.79-.53,1.6-.53,2.43,0,1.64.65,2.04,2.14,1.11,3.2-1.99,6.9-2.59,10.61-3.18.74-.12,1.46-.04,2.08.34,4.56,2.81,9.78,4.1,15.11,5.14,1.29.25,1.66.62.74,1.6-3.08,3.24-6.42,6.22-10.84,8.04-1.74.71-2.84,1.83-3.25,3.47-.16.67-.34,1.33-.8,1.91-3.67,4.59-7.34,9.19-10.99,13.8-.81,1.02-1.8,1.66-3.24,1.83-1.53.18-2.85.81-3.85,1.87-.56.6-1.2,1.24-.91,2.09.35,1.01,1.39.09,2.02.46.03.61-.57.92-.85,1.37-1.1,1.83-2.18,3.66-1.53,5.84.14.48.28,1.04.88,1.15.75.13.81-.55,1.02-.95.68-1.29,1.45-2.54,2.54-3.6,1.37-1.34,3.04-2.51,4.12-4.01,4.39-6.07,9.4-11.73,14.47-17.36.57-.63,1.18-1.1,2.05-1.41,1.72-.62,2.97-1.71,3.51-3.31.24-.7.7-1.19,1.34-1.61,2.67-1.75,5.3-3.55,8-5.26,1.87-1.19,4.13-1.52,6.3-2.18.11.76-.36,1.13-.63,1.6-1.1,1.91-2.29,3.84-2.45,6.02-.21,2.77,2.02,3.97,4.78,2.67.68-.32,1.3-.8,2.02-1,5.75-1.63,11.48-3.33,17.32-4.71,1.29-.31,2.18-.09,2.24,1.32.02.47.21.97.47,1.38.32.52.83,1.05,1.57.89.9-.2.42-.86.34-1.35-.06-.35-.16-.75.28-.9.44-.15.67.27.9.51,1.02,1.06,2.19,1.94,3.58,2.59.54.25,1.22.53,1.7.1.52-.46.07-1.02-.24-1.46-1.24-1.74-2.5-3.46-3.76-5.19-1.86-2.54-3.27-3.08-6.59-2.22-4.63,1.19-9.22,2.49-13.84,3.73-1.56.42-3.12.83-5.13,1.36,1.18-1.69,1.94-3.08,3.6-3.87,1.07-.51,2.17-1.04,2.74-2.06.54-.97,1.4-1.23,2.57-1.22,3.56.02,7.09-.16,10.56-.97,7.42-1.72,11.44-5.99,11.14-12.39-.11-2.28.8-3.46,2.95-4.47,3.66-1.72,6.76-4.04,9.12-7.13,4.93-6.44,5.14-14.48-3.5-19.83-1.35-.84-2.76-1.66-3.82-2.81-1.5-1.62-1.08-2.74,1.17-3.29,2.56-.63,5.18-.38,7.78-.5.52-.02,1.31.18,1.48-.33.19-.58-.59-.8-1.08-1.07.4-.22.8-.44,1.19-.67Z"/>
    <path class="cls-1" d="M99.81,4.99c-.4.22-.8.44-1.19.67.49.27,1.26.5,1.08,1.07-.17.52-.96.31-1.48.33-2.6.12-5.22-.13-7.78.5-2.25.55-2.67,1.67-1.17,3.29,1.06,1.15,2.47,1.97,3.82,2.81,8.64,5.35,8.42,13.39,3.5,19.83-2.36,3.08-5.46,5.41-9.12,7.13-2.14,1.01-3.06,2.19-2.95,4.47.3,6.4-3.72,10.67-11.14,12.39-3.47.8-7.01.99-10.56.97-1.18,0-2.03.26-2.57,1.22-.57,1.02-1.68,1.55-2.74,2.06-1.67.79-2.43,2.19-3.6,3.87,2-.53,3.57-.94,5.13-1.36,4.61-1.25,9.21-2.54,13.84-3.73,3.32-.85,4.72-.32,6.59,2.22,1.26,1.72,2.53,3.45,3.76,5.19.31.44.76,1.01.24,1.46-.48.42-1.16.15-1.7-.1-1.39-.65-2.56-1.53-3.58-2.59-.23-.24-.46-.66-.9-.51-.44.15-.34.55-.28.9.08.49.55,1.15-.34,1.35-.74.17-1.25-.37-1.57-.89-.26-.42-.45-.92-.47-1.38-.06-1.41-.95-1.63-2.24-1.32-5.84,1.39-11.57,3.08-17.32,4.71-.72.21-1.34.68-2.02,1-2.76,1.3-5,.1-4.78-2.67.17-2.18,1.35-4.1,2.45-6.02.27-.46.74-.84.63-1.6-2.17.66-4.43.99-6.3,2.18-2.7,1.72-5.33,3.51-8,5.26-.64.42-1.1.91-1.34,1.61-.54,1.6-1.8,2.69-3.51,3.31-.86.31-1.48.78-2.05,1.41-5.07,5.63-10.08,11.29-14.47,17.36-1.08,1.5-2.75,2.67-4.12,4.01-1.09,1.06-1.86,2.3-2.54,3.6-.21.41-.27,1.09-1.02.95-.6-.11-.74-.67-.88-1.15-.66-2.19.42-4.01,1.53-5.84.27-.45.87-.76.85-1.37-.63-.37-1.67.55-2.02-.46-.29-.85.34-1.49.91-2.09,1-1.06,2.31-1.69,3.85-1.87,1.44-.17,2.43-.8,3.24-1.83,3.64-4.61,7.32-9.2,10.99-13.8.46-.58.64-1.24.8-1.91.4-1.65,1.51-2.76,3.25-3.47,4.42-1.82,7.76-4.8,10.84-8.04.93-.97.55-1.34-.74-1.6-5.32-1.04-10.55-2.33-15.11-5.14-.62-.38-1.34-.45-2.08-.34-3.72.59-7.41,1.19-10.61,3.18-1.49.93-2.15.53-2.14-1.11,0-.84.19-1.65.53-2.43.13-.3.43-.68.02-.94-.37-.23-.71.04-1.02.27-.93.69-1.85,1.39-2.65,2.22-.42.43-.91.96-1.68.73-.82-.25-.9-.93-.94-1.58-.07-1.25.41-2.4.9-3.55.11-.27.29-.58.06-.84-.32-.36-.72-.11-1.06,0-.87.32-1.71.7-2.58,1.03-1.25.47-1.6.23-1.45-.98.15-1.2.78-2.24,1.4-3.27,3.07-5.17,9.46-7.69,15.87-6.26.66.15,1.4.44,1.09-.68-.29-1.03.52-1.13,1.37-1.14,2.44-.03,4.88.09,7.32-.12,3.26-.28,6.24-1.26,9.13-2.57,5.03-2.28,10.05-4.62,15.62-5.72,8.24-1.63,16.11-1.05,23.23,3.39,1.75,1.09,3.5,1.8,5.71,1.01.91-.32,1.97-.04,2.96.1,4.14.59,7.77-.96,9.33-3.93,1.72-3.27.85-6.89-2.28-9.31-2.17-1.67-4.59-3.09-6.49-5.03-3.2-3.27-3.97-6.93-2.15-10.93,1.03-2.26,3.47-3.29,5.84-2.15,3.55,1.71,7.07,3.39,11.1,4.12l-.04.4Z"/>
  </g>
</svg>