<?xml version="1.0" encoding="UTF-8"?>
<svg id="Capa_1" data-name="Capa 1" xmlns="http://www.w3.org/2000/svg" viewBox="0 0 1080 1080">
  <defs>
    <style>
      .cls-1 {
        fill: #57f757;
        stroke-width: 0px;
      }
    </style>
  </defs>
  <path class="cls-1" d="M1074.99,739.85s-.08.09-.13.13c-.05.04-.11.09-.17.12-.35.19-.75.33-1.18.42-.85.2-1.8.3-2.79.38-2,.13-4.21.11-6.47.04-1.13-.04-2.28-.09-3.42-.15-2.28-.12-4.55-.28-6.65-.45-1.05-.08-2.05-.17-3-.25-5.07-.48-10.09-.95-15.16-1.42l-4.79-.41c.73.01,1.47.03,2.2.03.18,0,.36,0,.54,0,.75,0,1.49.01,2.21,0,0,0,0,0,.01,0,.74,0,1.44-.02,2.13-.03.12,0,.23,0,.35-.01,1.71-.05,3.22-.16,4.29-.35.48-.08.06-.33-.54-.49-5.08-1.39-10.83-2.95-16.92-4.55-.02,0-.04-.01-.06-.02-1.63-.43-3.27-.85-4.95-1.29-.91-.23-1.81-.47-2.73-.7-1.34-.34-2.68-.68-4.04-1.02-.9-.23-1.81-.45-2.72-.67-1.54-.38-3.08-.75-4.64-1.13-.62-.15-1.25-.29-1.87-.44-1.8-.43-3.6-.85-5.41-1.26-.32-.07-.65-.14-.97-.22-4.31-.97-8.63-1.9-12.89-2.74l-8.62-1.66c3.94.25,7.87.5,11.79.74.26.02.53.03.79.05,3.55.18,7.27.39,10.5.3,1.08-.03,2.1-.09,3.05-.19.74-.08.44-.47.01-.78-1.93-1.44-5.3-2.71-9.01-3.85-3.66-1.07-7.66-2.02-10.93-2.91-.04-.01-.09-.02-.13-.03-2.77-.76-5.56-1.49-8.36-2.2-2.8-.71-5.61-1.39-8.44-2.04-5.65-1.3-11.36-2.49-17.1-3.53-4.5-.79-9.02-1.47-13.54-2.02-4.52-.55-9.06-.97-13.59-1.25,3.88-.51,7.74-.87,11.43-1.47.24-.04.49-.06.73-.1,1.57-.27,3.13-.57,4.58-.92,1.45-.35,2.8-.76,3.95-1.27.76-.34,1.44-.73,2-1.17.11-.08.16-.18.18-.28,0-.02,0-.05.01-.07,0-.2-.13-.42-.37-.63-.02-.02-.04-.04-.06-.05-.32-.27-.77-.51-1.27-.69-2.66-.98-5.57-1.57-8.54-1.95h0s-.02,0-.03,0c-2.05-.27-4.13-.44-6.19-.58-2.31-.17-4.59-.3-6.74-.43-7.44-.55-14.89-.84-22.31-.78-2.47.02-4.94.08-7.4.18-1.62.05-3.24.14-4.85.24-1.62.1-3.23.22-4.84.34,2-.82,3.88-1.72,5.56-2.69,1.68-.98,3.16-2.04,4.35-3.2.57-.56-.28-1.27-1.13-1.65-2.62-1.19-5.78-1.7-9.05-1.9-.15,0-.29-.02-.44-.03-2.62-.13-5.29-.07-7.81.05-.05,0-.09,0-.13,0-1.26.06-2.5.13-3.66.19-5.16.24-10.26.7-15.32,1.36-5.05.66-10.06,1.52-15.03,2.59-1.99.42-3.98.87-5.96,1.35-5.94,1.42-11.81,3.07-17.61,4.89,1.18-.7,2.33-1.4,3.45-2.13,1.97-1.27,3.83-2.6,5.59-3.96.39-.3.78-.6,1.15-.91.83-.68,1.65-1.36,2.41-2.07,0,0,0,0,0,0,.27-.25.11-.69-.13-.9-3.88-3.55-12.82-.66-17.97.75-5.12,1.32-10.39,2.47-15.5,3.95-5.54,1.58-11,3.41-16.36,5.44-2.69,1.02-5.33,2.11-7.94,3.25-7.83,3.43-15.33,7.36-22.54,11.68.46-.35.91-.71,1.36-1.07,2.22-1.8,4.24-3.69,5.44-5.64.24-.39.45-.78.62-1.18.17-.4.3-.79.39-1.2h0c.03-.13-.01-.25-.06-.37h0c-.19-.46-.91-.77-1.61-.74-3.98.24-8.05,1.67-11.8,3.29-4.21,1.77-8.33,3.78-12.45,5.75-.57.28-1.13.59-1.7.87.03-.02.06-.04.09-.06-.36.18-.71.38-1.07.56-1.9.96-3.8,1.93-5.67,2.95-.7.38-1.39.79-2.09,1.19-1.58.89-3.16,1.78-4.71,2.71-1.23.73-2.42,1.5-3.63,2.26-1.02.64-2.05,1.26-3.06,1.91-2.24,1.46-4.44,2.94-6.62,4.47-5.32,3.73-10.48,7.65-15.51,11.69-3.87,3.11-7.66,6.29-11.34,9.54-.3.26-.61.52-.91.78,1.75-2.09,3.47-4.19,5.16-6.31.56-.71,1.13-1.41,1.68-2.12.12-.15.17-.28.21-.41,0-.03.01-.06.01-.1.01-.1,0-.19-.03-.27,0-.02-.01-.04-.02-.06-.11-.2-.34-.34-.64-.41,0,0,0,0,0,0h0c-.3-.07-.66-.06-1.01.04-3.41.96-6.77,2.58-9.99,4.53-.16.1-.33.19-.49.29-.46.28-.91.58-1.36.87-.41.27-.82.54-1.23.81-.31.21-.62.43-.93.64-.58.41-1.16.83-1.73,1.25-.16.12-.33.24-.49.36-.75.56-1.48,1.13-2.2,1.71-.02.01-.03.02-.05.04-.38.31-.75.61-1.12.92,1.38-1.46,2.73-2.99,4.05-4.56.19-.22.38-.45.57-.67,1.13-1.32,2.25-2.65,3.36-3.97.65-.78,1.28-1.53,1.91-2.3.97-1.17,1.92-2.32,2.83-3.43,3.96-4.73,7.89-9.45,11.71-14.24,1.95-2.38,3.89-4.75,5.81-7.14,1.92-2.39,3.81-4.79,5.64-7.23l7.22-9.61c-2.01,4.88-3.31,9.55-3.43,13.38-.03.92,1.16.58,2.1.03,2.94-1.73,5.85-4.41,8.62-7.37.01-.01.03-.03.04-.04,3.35-3.58,6.49-7.59,9.22-10.97.01-.01.03-.03.04-.05,4.04-4.84,7.72-9.84,11.47-14.8,3.74-4.96,7.31-10.01,10.76-15.15,5.46-8.28,10.97-16.54,16.1-24.98-.57,1.53-1.11,3.06-1.62,4.57-1.01,3.02-1.86,5.98-2.5,8.83-.32,1.43-.6,2.83-.81,4.21-.02.1,0,.18.03.25.1.24.41.35.68.32,5.66-.62,11.36-10.21,14.91-15.58.01-.02.03-.04.04-.06,3.51-5.3,7.54-10.42,11.13-15.72,1.98-2.85,3.88-5.74,5.76-8.65,1.88-2.91,3.72-5.83,5.58-8.73,5.52-8.79,10.48-17.74,15.17-26.74,1.56-3,3.1-6.01,4.61-9.01-.4,1.07-.78,2.14-1.12,3.19-.9,2.74-1.55,5.37-1.58,7.57-.01,1.02.1,1.94.38,2.75.05.13.15.2.26.27h0c.44.24,1.28-.03,1.92-.58,3.59-3.16,6.6-7.36,9.26-11.48,2.93-4.64,5.86-9.29,8.77-13.91.4-.63.77-1.28,1.16-1.91-.01.02-.03.05-.04.07.19-.3.36-.61.55-.91,1.45-2.36,2.88-4.73,4.27-7.11.14-.25.28-.49.42-.74,1.27-2.19,2.53-4.38,3.75-6.59,1.68-3,3.32-6,4.94-9.02,1.5-2.8,2.97-5.61,4.41-8.43,1.06-2.13,2.1-4.24,3.16-6.36,2.13-4.28,4.25-8.57,6.36-12.82,3.04-6.47,6.06-12.89,9.06-19.27-1.3,4.11-2.52,8.19-3.55,12.24-.05.21-.06.37-.03.51,0,.04.02.07.03.1.03.1.08.17.14.23.02.01.03.03.05.04.39.24,1.2-.07,1.85-.71,3.85-3.83,7.26-8.52,10.3-13.43.08-.13.16-.25.23-.37,1-1.63,1.97-3.28,2.89-4.94.19-.35.38-.69.57-1.03.87-1.59,1.72-3.19,2.53-4.75,1.62-3.23,3.19-6.41,4.72-9.59.78-1.63,1.58-3.26,2.32-4.9,2.14-4.85,4.25-9.62,6.33-14.33,8.76-19.98,17.23-39.55,25.74-57.55-1.23,3.07-2.42,6.13-3.49,9.19-.78,2.22-1.64,4.53-2.49,6.86-.85,2.33-1.69,4.68-2.42,6.97,0,.03-.02.05-.02.08-.18.58-.37,1.16-.55,1.76-.02.05-.03.1-.05.15v-.04c-1.11,3.71-2.06,7.58-1.52,9.79.14.58,1.35.19,2.21-1.09,2.31-3.51,3.92-7.01,5.42-10.4,1.61-3.65,3.12-7.23,4.83-10.85,4.04-8.66,7.98-17.1,11.79-25.28,3.76-8.03,7.53-15.72,11.23-22.95-1.14,2.82-2.21,5.67-3.14,8.47-1.31,3.93-2.33,7.74-2.81,11.16-.03.22.04.3.17.28.03,0,.07-.03.11-.05.13-.05.27-.14.45-.29.45-.38,1.02-1.03,1.43-1.65,3.22-4.84,5.65-9.67,7.71-14.03,1.24-2.62,2.34-5.07,3.41-7.26,1.78-3.72,3.68-7.45,5.67-11.11,1.99-3.66,4.05-7.25,6.15-10.71,3.92-6.5,7.69-12.31,12.24-18.2,1.67-2.18,3.41-4.32,5.16-6.38,1.76-2.06,3.53-4.04,5.27-5.91.47-.5.94-.99,1.41-1.47.47-.48.93-.95,1.38-1.41.91-.91,1.77-1.74,2.52-2.45.28-.26.56-.51.82-.75.26-.24.51-.47.74-.67.07-.06.09-.08.09-.08,0,0-.03.03-.1.08-.28.23-.62.5-.96.77-.23.19-.47.38-.71.57-.41.32-.86.67-1.33,1.04-1.42,1.09-3.07,2.33-4.75,3.54-1.05.75-2.12,1.51-3.22,2.27-3.3,2.28-6.8,4.59-10.35,6.77-3.77,2.31-7.47,4.4-11.27,6.43-2.68,1.43-5.39,2.84-8.25,4.27-5.52,2.78-11.29,5.53-17.12,8.11-1.94.86-3.89,1.7-5.83,2.51-1.53.64-3.18,1.3-4.91,2.02-2.6,1.07-5.39,2.26-8.3,3.64-2.91,1.38-5.93,2.96-8.97,4.82-.48.3-.98.69-1.37,1.06,0,0,0,0,0,.01-.25.24-.46.47-.58.66-.18.28-.17.46.17.42,4.5-.57,9.73-1.94,15.01-3.66,1.76-.57,3.53-1.19,5.28-1.82-3.86,1.74-7.78,3.51-11.74,5.3-3.96,1.79-7.97,3.6-12.02,5.43-8.33,3.69-17.03,7.66-25.98,11.91-3.75,1.72-7.38,3.39-11.1,5.09-.86.4-1.73.81-2.61,1.24-2.63,1.28-5.32,2.72-7.98,4.57-1.31.91-1.69,2.14-1.09,2.26.34.07.71.1,1.11.11,1.21.01,2.68-.23,4.28-.63,2.12-.52,4.45-1.29,6.61-2.03,1.17-.4,2.35-.83,3.54-1.28,3.55-1.33,7.13-2.79,10.57-3.98,3.14-1.12,6.27-2.33,9.4-3.6-9.24,4.29-18.79,8.76-28.56,13.41-9.77,4.65-19.76,9.49-29.89,14.52-9.46,4.82-19.26,9.85-28.91,15.86-2.13,1.31-4.28,2.72-6.43,4.2-2.14,1.48-4.28,3.03-6.38,4.64-2.11,1.59-4.12,3.29-6,5.06-1.88,1.78-3.63,3.63-5.2,5.56-.12.14-.22.29-.31.43-.27.44-.41.88-.39,1.21,0,.11.03.21.08.28.13.24.44.31.96.12,1.45-.55,2.89-1.15,4.34-1.75,1.44-.6,2.9-1.19,4.35-1.81,1.18-.5,2.35-1,3.54-1.5-12.6,7.48-25.36,15.36-37.68,23.98-5.66,3.96-11.33,8.02-16.87,12.33-5.52,4.33-10.96,8.83-16.29,13.52-4.4,3.84-8.76,7.74-12.99,11.79-.95.9-1.9,1.83-2.84,2.78-1.87,1.9-3.69,3.88-5.28,5.97-.8,1.04-1.54,2.1-2.2,3.19-.44.72-.62,1.59-.37,2.02.08.14.21.23.39.26,1.58.18,3.47-.28,5.52-1.1.49-.2.98-.41,1.49-.65.9-.42,1.81-.88,2.74-1.39.61-.34,1.22-.69,1.84-1.05.62-.36,1.23-.74,1.85-1.12-2.85,2.15-5.68,4.35-8.48,6.61-2.8,2.26-5.57,4.57-8.32,6.95-5.5,4.74-10.89,9.72-16.18,14.92-2.65,2.59-5.23,5.26-7.77,7.99-2.54,2.72-5.05,5.49-7.55,8.28-2.29,2.59-4.56,5.23-6.81,7.89-2.25,2.66-4.48,5.33-6.69,7.98-2.27,2.64-5.5,6.18-8.07,9.8-.64.9-1.24,1.81-1.78,2.71-.8,1.35-1.45,2.68-1.87,3.94-.28.84-.45,1.66-.49,2.43-.02.39,0,.76.04,1.13.03.27.21.54.47.57.09.01.18,0,.28-.05,1.33-.66,2.68-1.39,4.04-2.18,2.72-1.57,5.48-3.37,8.26-5.33,1.39-.98,2.78-2,4.18-3.06-1.79,1.96-3.58,3.92-5.35,5.89-5.33,5.93-10.59,11.99-15.56,18.33-4.17,5.24-8.21,10.58-12.12,16.05-.29.41-.56.84-.85,1.25-.02-.26,0-.52-.03-.78-.08-1.01-.6-1.87-1.21-2.02,0,0,0,0,0,0-.36-.09-.75.08-1.09.64-2.68,4.33-5.16,8.83-7.66,13.4,2.86-7.83,5.62-15.74,8.35-23.73,2.27-7.05,4.54-14.16,6.68-21.3.28-.95.59-1.88.86-2.83,2.16-7.44,4.15-14.96,5.92-22.56,1.76-7.6,3.29-15.27,4.52-23.01,1.01-6.36,2.08-12.73,2.86-19.11.72-5.71,1.18-11.77.03-17.27-.2-.91-.8-1.76-1.45-1.94-.11-.03-.22-.04-.33-.03-.11.01-.22.04-.32.1-4.08,2.17-6.94,7.98-9.39,14.08.21-.78.39-1.56.59-2.34,1.82-6.92,3.5-13.9,4.94-20.97,1.5-7.37,2.74-14.83,3.72-22.39.07-.51.16-1.01.22-1.53.5-4.03.93-8.08,1.29-12.14.37-4.06.67-8.13.91-12.21.11-1.88.19-3.78.26-5.67.14-3.79.22-7.59.33-11.37.06-1.89.13-3.77.21-5.65.19-3.31.59-7.7.49-11.97-.01-.62-.04-1.23-.08-1.83-.07-1.2-.2-2.38-.39-3.51-.47-2.82-1.36-5.31-2.91-7.04-.31-.34-.65-.66-1.02-.94-.16-.12-.38-.2-.6-.22-.02,0-.05-.01-.07-.01-.24,0-.47.08-.61.3-2.16,3.54-4.06,7.49-5.8,11.67-1.15,2.76-2.23,5.6-3.22,8.54.27-2.65.51-5.3.74-7.95.52-6.05.94-12.11,1.25-18.2.15-2.92.26-5.84.36-8.77.11-3.65.17-7.3.17-10.95,0-3.65-.06-7.3-.19-10.97-.12-3.66-.31-7.33-.56-11.01-.25-3.68-.58-7.37-.97-11.08-.5-4.68-.85-10.15-1.74-15.44-.96-5.29-2.38-10.41-4.73-14.41-.34-.57-.79-1.13-1.24-1.43-.45-.3-.9-.34-1.24.13h0c-1.4,1.95-2.6,4.29-3.63,6.9-1.03,2.61-1.89,5.51-2.62,8.56-.31-4.7-.66-9.41-1.06-14.12-.32-3.58-.68-7.16-1.08-10.75-.46-4.1-.99-8.21-1.56-12.32-.84-6.07-1.78-12.15-2.8-18.23-.1-.59-.19-1.17-.29-1.76-1.3-7.43-2.27-15.93-4.43-23.66-.72-2.57-1.57-5.06-2.61-7.39-.27-.61-.61-1.19-.96-1.61-.24-.28-.48-.5-.71-.62-.12-.06-.23-.09-.34-.1-.21-.01-.41.1-.57.35-1.1,1.77-1.82,4.2-2.31,6.97-.12.69-.23,1.41-.33,2.14-.2,1.46-.35,2.99-.49,4.54-.07.78-.13,1.56-.19,2.34-.41,5.84-.35,11.97-.47,18.14-2.11-13.25-4.88-26.44-8.12-39.58-2.85-11.34-5.99-22.61-9.27-33.77-1.57-5.32-3.16-10.63-4.79-15.91-.38-1.21-.76-2.5-1.16-3.83-.78-2.66-1.59-5.51-2.44-8.33-.42-1.41-.85-2.82-1.3-4.19-.46-1.37-.92-2.71-1.39-4-1.42-3.85-2.91-7.18-4.49-9.28-.23-.31-.49-.57-.7-.61-.05-.01-.1,0-.14.01-.13.06-.22.26-.24.69-.04.72-.07,1.47-.09,2.25-.04,2.32.05,4.86.21,7.5.11,1.76.25,3.55.4,5.36.08.99.17,1.97.26,2.95.07.82.15,1.63.23,2.44.69,6.26,1.38,12.58,2.07,18.91-1-4.28-1.99-8.56-2.99-12.83-7.05-30.05-15.86-62.45-22.11-85.96-.18-.68-.42-1.2-.57-1.11-.05.03-.09.13-.12.32-.12.83-.2,1.82-.26,2.93-.06,1.11-.09,2.33-.11,3.63-.43-2.97-.86-5.93-1.25-8.89-.31-2.3-.61-4.6-.87-6.93-.09-.79-.17-1.59-.26-2.39-.01-.1-.02-.2-.03-.3-.14-1.25-.31-2.79-.5-4.54-.58-5.25-1.34-12.32-1.77-18.63-.31-4.21-.49-8.08-.59-10.85-.08-2.2-.11-3.68-.11-4.1h0c0,.52.01,1.06.01,1.64-.01,8.01-.87,21.18-1.66,31.62-.12,1.61-.24,3.15-.35,4.6-.64,7.73-1.27,15.42-1.92,23.22l-.55,7.32c.02-1.13.03-2.26.04-3.38,0-.27,0-.53,0-.8.01-2.33,0-4.59-.06-6.68,0-.17-.01-.34-.02-.5-.08-2.62-.24-4.93-.51-6.59-.12-.74-.46-.09-.68.83-1.16,4.8-2.38,9.85-3.65,15.09-1.87,7.65-3.86,15.83-5.87,24.29-.13.54-.26,1.07-.39,1.61-.19.82-.38,1.66-.57,2.48-.17.74-.35,1.47-.52,2.2-.18.78-.36,1.57-.54,2.35-.56,2.44-1.12,4.87-1.68,7.33-.13.57-.25,1.13-.38,1.7-2.24,9.93-4.42,19.97-6.46,29.77-.87,4.3-1.74,8.62-2.61,12.93.51-6.34,1.02-12.67,1.52-18.94.06-.89.12-1.79.17-2.69.11-1.8.22-3.62.31-5.4.21-4.47.28-8.79-.04-12.37-.1-1.13-.65-.67-1.1-.04,0,0,0,0,0,0-2.05,2.89-3.87,7.95-5.55,13.5-1.6,5.56-3.06,11.61-4.42,16.52-2.3,8.25-4.52,16.57-6.62,24.93-2.1,8.36-4.09,16.77-5.92,25.21-.7,3.31-1.38,6.62-2.02,9.94-1.92,9.94-3.54,19.9-4.77,29.88-.26-4.61-.41-9.2-.72-13.66-.1-1.49-.23-2.96-.38-4.41-.08-.78-.17-1.56-.26-2.33-.19-1.54-.4-3.06-.65-4.5-.25-1.45-.54-2.83-.9-4.1-.53-1.91-1.2-3.57-2.07-4.86-.11-.16-.24-.24-.38-.28-.03-.01-.07-.02-.1-.02-.28-.03-.6.16-.91.49-.03.03-.05.06-.08.08-.39.45-.78,1.1-1.06,1.81-2.67,6.52-3.84,14.16-4.76,21.53-.44,3.34-.83,6.62-1.22,9.71-1.97,14.43-3.45,28.84-4.19,43.18-.23,4.71-.41,9.43-.56,14.13-.42-1.51-.88-2.97-1.36-4.38-.24-.71-.5-1.4-.76-2.07-1.05-2.7-2.25-5.15-3.63-7.23-.35-.52-.7-1.02-1.07-1.49-.71-.9-1.8.23-2.44,1.4-1.22,2.25-2.12,4.84-2.83,7.58-.25.91-.46,1.84-.66,2.79-.12.57-.21,1.16-.31,1.74-.07.4-.14.8-.2,1.21-.07.42-.15.83-.21,1.25-.25,2-.42,4.02-.56,6.02-.03.47-.07.94-.1,1.41-.19,2.81-.32,5.54-.49,8.04-1,14.86-.88,29.42.13,43.98.79,11.67,2.08,23.27,3.68,34.77-2.79-7.31-6-14.11-9.81-19.83-.07-.1-.16-.17-.25-.21-.32-.15-.76-.02-1.02.2-5.7,4.71-3.65,17.87-2.92,25.41.33,3.87.58,7.79.84,11.7.24,3.65.5,7.31.85,10.93.39,4.06.85,8.12,1.38,12.16.52,4.04,1.11,8.07,1.77,12.08.56,3.39,1.2,6.75,1.87,10.1,1.7,8.55,3.72,16.97,6.03,25.27,1.07,3.85,2.2,7.67,3.38,11.47-.67-1.5-1.36-2.98-2.09-4.39-2.19-4.23-4.71-7.81-7.83-9.31-.86-.41-1.81.73-2.03,1.96-.91,5.55-.27,11.58.7,17.27,1.02,6.35,2.35,12.68,3.58,19,.17.86.38,1.71.56,2.56,0-.03-.02-.05-.02-.08.08.37.17.74.25,1.12.67,3.17,1.36,6.34,2.12,9.49.17.71.37,1.42.54,2.13.71,2.86,1.43,5.73,2.21,8.57.41,1.5.86,2.99,1.29,4.49.59,2.05,1.16,4.12,1.78,6.16,1.08,3.57,2.2,7.11,3.37,10.64,0,.03.02.05.03.08,2.68,8,5.53,15.95,8.39,23.83,1.46,3.79,2.91,7.56,4.37,11.31-4.42-6.4-9.06-12.58-13.88-18.6-.44-.55-.87-1.12-1.31-1.66-3.33-4.21-6.8-8.28-10.34-12.26-3.4-3.83-6.86-7.58-10.31-11.32-.14-.15-.28-.31-.42-.46,5.6,4.16,11.19,7.79,16.53,10.4.1.05.18.06.26.05.07,0,.13-.04.19-.07,0,0,0,0,0,0,.16-.1.27-.3.29-.5.71-5.86-7.74-14.69-12.31-19.93-1.03-1.21-2.08-2.43-3.11-3.64-1.21-1.42-2.41-2.85-3.64-4.26-.61-.71-1.22-1.41-1.83-2.12-1.53-1.78-3.07-3.55-4.64-5.28-.13-.14-.26-.29-.39-.43-2.52-2.76-5.04-5.52-7.6-8.22-2.56-2.7-5.16-5.35-7.84-7.91-2.66-2.58-5.35-5.11-8.06-7.57-5.43-4.93-10.95-9.62-16.58-14.09-2.81-2.24-5.65-4.41-8.51-6.54,1.24.75,2.48,1.48,3.7,2.14.61.33,1.22.65,1.81.94,1.19.59,2.35,1.08,3.46,1.45,1.1.37,2.15.61,3.11.68,0,0,.02,0,.03,0,.47.03.92.03,1.35-.03.13-.02.2-.11.28-.19,0-.01.02-.01.03-.02h0c.31-.4.16-1.31-.32-2.08-2.71-4.32-6.57-8.29-10.41-11.86-4.24-4.03-8.66-7.87-13.06-11.69-.6-.52-1.22-1.02-1.83-1.54.03.02.05.04.08.06-.31-.26-.62-.51-.93-.77-2.22-1.89-4.44-3.75-6.69-5.58-.28-.23-.56-.44-.84-.67-2.05-1.65-4.09-3.3-6.16-4.9-.16-.12-.33-.24-.49-.36-.14-.11-.27-.22-.41-.33-1.58-1.19-3.17-2.34-4.76-3.5-1.06-.77-2.1-1.56-3.16-2.32-2.63-1.89-5.27-3.74-7.92-5.57-.06-.04-.12-.09-.18-.13-9.27-6.39-18.76-12.38-28.26-18.1-3.16-1.91-6.33-3.78-9.49-5.63,4.15,1.7,8.16,3.45,12.22,4.97.21.08.38.1.52.1.04,0,.07,0,.11-.02.1-.02.18-.06.24-.12.01-.01.03-.02.04-.04.14-.19.14-.5.03-.85h0c-.11-.36-.32-.75-.62-1.12-1-1.23-2.1-2.41-3.24-3.57h0s0,0,0,0c-2.2-2.24-4.61-4.34-7.17-6.32-.12-.09-.23-.18-.34-.27-.17-.13-.33-.27-.5-.4-.28-.22-.57-.42-.86-.63-.68-.52-1.37-1.03-2.06-1.53-.24-.18-.49-.35-.74-.53-.57-.4-1.13-.81-1.7-1.2-2.49-1.74-4.99-3.39-7.47-4.89-2.41-1.49-4.84-2.92-7.26-4.3-7.27-4.14-14.53-7.84-21.61-11.43-20.19-9.98-39.83-19.23-58.18-27.78,3.11,1.26,6.21,2.47,9.32,3.57,4.54,1.59,9.36,3.62,14.01,5.22.61.21,1.24.42,1.87.63.05.02.1.03.14.05h-.04c3.76,1.22,7.68,2.3,9.93,1.82.59-.13.2-1.36-1.11-2.27-3.57-2.45-7.13-4.19-10.56-5.8-3.7-1.7-7.32-3.36-11.05-5.07-8.9-4.25-17.55-8.21-25.8-11.9-2.04-.93-4.07-1.85-6.08-2.76-6.03-2.73-11.89-5.37-17.45-7.99,5.47,2.02,11.11,3.77,16.18,4.79,1.32.27,2.62.52,3.84.67.22.03.3-.04.27-.18-.08-.4-1.11-1.38-2.07-1.98-1.01-.62-2.02-1.22-3.02-1.78-1-.56-1.99-1.1-2.98-1.61-1.97-1.02-3.89-1.94-5.76-2.79-3.73-1.69-7.2-3.08-10.23-4.36-7.68-3.27-15.41-6.96-22.65-10.7-1.7-.87-3.36-1.74-4.98-2.6-1.63-.87-3.22-1.73-4.8-2.62-3.16-1.77-6.26-3.6-9.42-5.6-4.65-2.94-9.21-6.11-13.31-9.16-.67-.5-1.33-1-1.98-1.5-1.47-1.13-2.85-2.22-3.96-3.14-.29-.25-.58-.49-.85-.72-.27-.23-.53-.45-.76-.64-.06-.06-.09-.08-.09-.08,0,0,.04.03.1.09.22.21.47.45.73.7.26.25.54.52.82.78.38.37.78.76,1.2,1.19,1.26,1.27,2.68,2.77,4.07,4.3.86.96,1.73,1.94,2.6,2.95,2.62,3.03,5.25,6.28,7.73,9.61,1.13,1.5,2.2,3,3.25,4.5,3.13,4.51,5.97,9.07,8.88,14.02,1.04,1.76,2.07,3.55,3.09,5.36,2.04,3.63,4.02,7.35,5.9,11.11.94,1.88,1.86,3.76,2.74,5.65,1.76,3.69,3.64,8.12,6.05,12.82,1.45,2.82,3.08,5.74,5,8.66.3.47.7.95,1.06,1.32,0,0,.02.01.02.02.2.2.39.36.56.48.13.09.24.15.32.16.13.02.2-.06.17-.29-.12-.88-.28-1.78-.47-2.7-.25-1.26-.57-2.57-.92-3.89-.11-.41-.23-.82-.35-1.24-.58-2.03-1.27-4.12-2.01-6.22-.39-1.08-.78-2.17-1.2-3.26-.33-.86-.67-1.72-1.01-2.58.92,1.83,1.85,3.69,2.78,5.57,2.79,5.65,5.6,11.54,8.41,17.6,1.9,4.12,3.84,8.3,5.8,12.54,1.96,4.24,3.95,8.55,5.97,12.9,1.7,3.64,3.22,7.25,4.83,10.91.37.85.76,1.71,1.15,2.57.79,1.73,1.65,3.48,2.65,5.23.5.88,1.04,1.75,1.62,2.63.43.64.94,1.06,1.37,1.24.42.18.76.13.83-.17.08-.33.12-.69.14-1.09.03-.79-.04-1.7-.2-2.68-.08-.49-.18-1-.29-1.52-.23-1.05-.51-2.14-.83-3.24-.16-.55-.32-1.1-.49-1.65-.17-.55-.34-1.09-.51-1.63-1.11-3.47-2.45-7.05-3.71-10.51-.42-1.15-.83-2.3-1.23-3.42-1.08-3.08-2.26-6.17-3.5-9.25,8.52,18.12,17.02,37.76,25.82,57.79,2.09,4.72,4.21,9.5,6.37,14.36,2.21,4.83,4.62,9.6,7.08,14.49,2.76,5.33,5.92,10.95,9.55,16.04,2.18,3.05,4.52,5.92,7.05,8.41.37.37.8.63,1.17.73.62.18,1.08-.06.85-.93-.93-3.57-2-7.19-3.16-10.8-.15-.49-.29-.97-.45-1.46.98,2.05,1.97,4.14,2.95,6.2,2.06,4.34,4.12,8.67,6.2,13.05,3.19,6.35,6.4,12.74,9.62,19.15,1.5,2.92,3.05,5.83,4.63,8.73,1.58,2.9,3.19,5.78,4.82,8.67,3.24,5.79,6.64,11.5,10.23,17.13,1.49,2.3,2.95,4.62,4.41,6.94,1.46,2.32,2.93,4.63,4.44,6.92,2.7,4.09,5.72,8.29,9.34,11.4.8.68,1.96.97,2.19.29.27-.81.38-1.75.36-2.76-.01-.59-.08-1.21-.17-1.84-.15-1.03-.38-2.11-.7-3.24-.17-.61-.36-1.23-.56-1.85-.4-1.25-.87-2.54-1.36-3.82,6.14,11.99,12.58,23.97,20.04,35.63,1.88,2.9,3.74,5.8,5.64,8.7,1.9,2.89,3.83,5.77,5.83,8.61.91,1.32,1.85,2.62,2.8,3.92.95,1.3,1.91,2.6,2.86,3.89,1.62,2.2,3.22,4.41,4.76,6.64.27.4.56.79.83,1.18,1.69,2.52,3.89,5.98,6.33,9.01.47.58.94,1.15,1.42,1.68.67.74,1.35,1.43,2.04,2.05,1.73,1.54,3.51,2.6,5.28,2.78h0c.17.02.36-.02.51-.12.14-.1.23-.25.2-.46-.91-5.5-2.75-11.47-5.1-17.59,5.21,8.4,10.78,16.63,16.3,24.89,1.75,2.56,3.52,5.1,5.33,7.61,1.81,2.51,3.66,5.01,5.55,7.47,1.88,2.48,3.75,4.95,5.67,7.42,1.92,2.46,3.87,4.91,5.9,7.32,1.27,1.54,2.62,3.22,4.04,4.93,3.54,4.28,7.5,8.76,11.55,11.79.81.61,1.63,1.15,2.44,1.63.7.41,1.55.69,1.91.42.12-.09.19-.24.18-.47-.15-3.85-1.51-8.51-3.53-13.41l7.27,9.59c3.69,4.87,7.64,9.57,11.55,14.33,3.83,4.79,7.81,9.49,11.78,14.21,2.73,3.26,5.69,6.86,8.73,10.35.6.72,1.21,1.42,1.82,2.12-.87-.69-1.76-1.38-2.66-2.06-2.49-1.85-5.11-3.59-7.81-5.07-1.8-.98-3.64-1.85-5.49-2.54-.93-.35-1.86-.65-2.79-.91-.41-.11-.83-.1-1.15,0-.43.14-.68.45-.52.88.04.11.1.22.2.34,1.11,1.41,2.25,2.82,3.4,4.22s2.33,2.8,3.52,4.18c-4.4-3.85-8.94-7.62-13.61-11.27-4.66-3.65-9.46-7.19-14.36-10.57-6.76-4.66-13.82-9.02-21.17-12.91-2.45-1.3-4.93-2.54-7.45-3.73-2.07-.97-4.14-1.94-6.22-2.89-2.08-.95-4.17-1.87-6.29-2.74-.94-.39-1.91-.77-2.88-1.13-2.93-1.07-5.96-1.9-8.95-2.04-.88-.03-1.82.46-1.66,1.12.29,1.2.95,2.37,1.86,3.52,1.29,1.61,3.07,3.17,4.98,4.67.35.28.7.55,1.06.82-4.84-2.83-9.8-5.49-14.9-7.95-5.1-2.45-10.35-4.7-15.74-6.69-2.69-.98-5.41-1.92-8.15-2.8-2.74-.88-5.5-1.7-8.28-2.47-2.57-.71-5.17-1.34-7.77-1.95-2.6-.61-5.21-1.21-7.78-1.84-.97-.25-2.07-.56-3.25-.86-.78-.2-1.6-.4-2.44-.59-2.09-.47-4.27-.83-6.28-.87-.8-.01-1.58.03-2.31.14-.73.11-1.42.29-2.04.55-.62.26-1.18.61-1.66,1.06-.06.05-.11.12-.16.2-.13.23-.17.52.04.7,1.42,1.28,2.98,2.5,4.62,3.69,2.51,1.84,5.22,3.59,8.09,5.24-1.94-.59-3.89-1.16-5.84-1.7-5.87-1.64-11.81-3.09-17.8-4.3-9.97-2.04-20.06-3.27-30.4-3.66-3.26-.14-7.06-.36-10.78-.2-2.04.09-4.04.31-5.93.7-1.56.32-3.04.75-4.38,1.36-.42.19-.85.47-1.09.76-.24.3-.31.61-.02.89,1.21,1.15,2.7,2.19,4.4,3.15,1.69.96,3.58,1.83,5.59,2.64-3.23-.21-6.46-.42-9.71-.5-4.93-.16-9.88-.15-14.84,0-4.96.15-9.92.43-14.88.82-6.84.56-14.94.64-21.48,3.09-.29.1-.56.23-.81.37-.12.07-.24.14-.34.22-.2.15-.37.31-.46.47-.05.08-.08.16-.09.23-.02.15.04.3.2.42.19.15.41.28.62.41,2.03,1.28,5.11,2.01,8.4,2.6.52.09,1.04.18,1.57.27,3.91.65,8.04,1,12.19,1.5-2.27.15-4.53.34-6.8.56-4.53.44-9.05,1.02-13.56,1.71-2.25.35-4.51.72-6.75,1.12-11.46,2.12-22.78,4.81-33.83,7.82-2.29.64-4.96,1.29-7.62,1.99-1.15.3-2.3.62-3.41.95-3.7,1.13-7.06,2.38-8.96,3.81-.42.32-.72.71.03.78,1.9.21,4.12.24,6.44.19,2.33-.05,4.77-.18,7.14-.29,4.18-.26,8.38-.53,12.59-.79l-8.6,1.65c-20.14,3.95-41.58,9.63-57.03,13.68-.45.12-.79.28-.73.39.02.04.09.07.21.09.81.15,1.86.25,3.04.32.4.02.81.04,1.23.06-1.73.23-3.45.45-5.18.66-1.72.21-3.45.4-5.19.56l-1.76.16c-3.27.28-9.66.91-15.16.92-.69,0-1.36,0-2.01-.02-1.96-.05-3.71-.19-5.04-.47-.39-.08-.74-.18-1.05-.3,0,0,0,0,0,0h0c.23.1.44.22.7.29.85.26,1.78.45,2.78.63,1.99.34,4.19.65,6.45.94,2.31.27,4.64.55,6.86.82,2.22.26,4.33.52,6.21.74,5.06.61,10.07,1.21,15.14,1.81l4.77.53c-.74-.03-1.48-.06-2.21-.09-.18,0-.35-.01-.52-.02-1.52-.05-3-.08-4.37-.08-.11,0-.22,0-.32,0-1.72.01-3.23.08-4.32.25-.49.07-.07.33.53.5,15.48,4.58,36.6,10.94,55.85,16.43l8.21,2.34c-4.05-.62-8.11-1.22-12.12-1.76-3.43-.42-7.03-.85-10.19-.95-1.05-.03-2.05-.03-2.98.02-.55.03-.53.27-.31.52.07.09.16.17.26.26,1.81,1.54,5.01,2.98,8.52,4.35.67.24,1.36.48,2.05.73,1.08.39,2.15.77,3.23,1.14,1.81.64,3.57,1.27,5.16,1.83,5.19,1.93,10.4,3.84,15.62,5.69,5.22,1.85,10.45,3.66,15.68,5.39,4.11,1.34,8.21,2.61,12.32,3.8,4.1,1.19,8.21,2.3,12.32,3.31-1.94-.07-3.87-.17-5.77-.25-1.91-.07-3.79-.12-5.63-.06h0c-.49.02-.99.03-1.48.06-.94.04-1.86.11-2.75.2-.96.1-1.89.23-2.74.42-1.23.28-2.31.66-3.17,1.22-.15.1-.2.22-.21.36,0,.04,0,.09.01.13.02.1.06.21.13.32.03.05.05.1.09.15.12.15.26.31.44.46h0c.21.18.45.34.71.49,3.95,2.25,8.66,3.52,13.21,4.62,2.03.5,4.02.98,5.9,1.45,4.41,1.16,8.82,2.26,13.21,3.27,2.2.51,4.39.99,6.59,1.46,2.19.46,4.39.9,6.58,1.31,1.22.24,2.44.45,3.66.66,1.66.29,3.32.57,4.98.85-3.86.72-7.36,1.86-9.92,3.64-.61.43-.01,1.3.65,1.85,2.07,1.71,4.73,2.89,7.54,3.8.05.02.1.03.16.05,3.41,1.09,7.04,1.78,10.1,2.44,6.69,1.47,13.3,2.6,19.93,3.41,2.21.27,4.42.5,6.64.7,3.55.33,7.11.59,10.66.79,3.55.21,7.11.36,10.66.48-4.75,1.1-9.23,2.58-13.12,4.64-.14.07-.2.21-.22.37-.03.14,0,.28.04.41,0,0,0,0,0,0h0s0,.08.02.11c.7,1.51,2.09,2.48,3.76,3.17h-.01s.04.01.06.02c3.33,1.35,7.85,1.49,10.87,1.75,0,0,0,0,.01,0,4.51.44,9.06,1.16,13.58,1.61,2.45.24,4.9.45,7.35.62,2.45.17,4.9.31,7.36.4,2.46.1,4.91.14,7.36.14,2.45,0,4.89-.04,7.33-.12,4.88-.16,9.75-.48,14.62-.89-.5.11-1,.23-1.49.35-1.96.5-3.84,1.12-5.4,1.98-1.17.65-2.16,1.43-2.87,2.39-.39.54.11,1.36.77,1.7,3.05,1.48,6.64,1.97,10.1,2.21,3.85.32,7.74.43,11.61.65.51.03,1.03.03,1.54.06,0,0-.01,0-.02,0,.09,0,.17,0,.26,0,2.14.09,4.28.16,6.42.19.07,0,.14,0,.22,0,2.16.03,4.31.03,6.47,0,.34,0,.68-.02,1.03-.02,1.89-.03,3.78-.07,5.67-.13,2.26-.08,4.52-.18,6.78-.3,0,0,.02,0,.03,0,5.57-.29,11.17-.67,16.78-1.1,4.77-.36,9.54-.75,14.3-1.16-3.21.82-6.36,1.66-9.45,2.7-.24.08-.37.2-.47.33-.03.04-.05.07-.07.11-.05.12-.07.25-.04.38,0,.05.02.09.03.13.04.1.08.21.15.31h.02c.16.22.37.42.67.55,3.51,1.5,7.55,2.2,11.67,2.52.07,0,.14.01.21.02,1.39.1,2.78.16,4.16.19.28,0,.56,0,.84,0,1.31.01,2.61,0,3.89-.02,5.94-.12,11.84-.58,17.64-1.07,1.94-.16,3.86-.33,5.77-.49,16.26-1.43,32.33-2.4,47.48-2.48-2.54.19-5.07.44-7.57.78-3.66.54-7.57.88-11.28,1.57-.52.09-1.05.2-1.58.31,0,0,0,0-.01,0,0,0,0,0,0,0-2.97.61-6.02,1.46-7.58,2.86-.41.37.07,1.24,1.16,1.42,3,.45,5.87.37,8.66.21,2.98-.13,5.94-.36,8.95-.41,7.26-.12,14.33-.2,21.1-.16,3.37.02,6.68.1,9.93.22,3.24.12,6.42.29,9.51.51-1.34.05-2.69.13-4.04.24-4.34.35-8.58,1.05-12.14,2.26-.09.03-.14.07-.18.11-.19.26.56.74,1.37.98.13.04.27.08.4.1,1.68.33,3.34.57,4.96.74,4.86.52,9.4.45,13.13.6,6.3.27,12.73,1,18.73,2.14,5.65,1.04,10.74,2.23,15.97,4.12.53.19,1.05.4,1.57.6.11.11.22.22.33.33.44.43.91.84,1.36,1.25.01.03,0,.06.01.09.11.27.31.43.55.5.07.08.14.16.23.29.34.48.68.96.99,1.46.6,1,1.34,2.23,1.4,3.43.09,1.64-.95,2.92-2.34,3.85-1.28.15-2.59.27-3.97.37-2.99.22-6.22.28-9.32.33-1.23.01-2.64-.02-4.16.04-1.52.06-3.16.2-4.84.55-.53.11-1.14.49-.78.61.6.19,1.22.35,1.87.49,1.95.42,4.11.64,6.21.76-1.45.08-2.95.14-4.48.2-1.68.06-3.4.12-5.16.18-3.4.1-6.98.23-10.7.43-1.5.1-3.02.19-4.53.29-1.41.1-2.89.23-4.37.68-.55.17-.73.63-.5.79,1.05.7,3.07.86,4.83.97,1.9.12,3.87.08,5.71.16,1.27.07,2.57.13,3.85.15-7.58.38-15.59,1.07-24.05,1.81-1.97.2-4,.4-6.03.67-1.99.31-3.99.7-6.02,1.15-3.54.82-7.44,2.02-10.21,4.19-.2.16-.33.39-.33.58,0,.19.12.34.41.35,1.69.04,3.39.02,5.1-.03-5.29,1.01-10.74,2.11-15.89,3.73-2.39.72-4.77,1.5-7.13,2.37-2.36.87-4.69,1.83-6.99,2.89-.94.44-1.89.87-2.83,1.31-.94.44-1.87.9-2.77,1.4-.41.22-.81.45-1.22.68-.4.24-.8.49-1.18.76-.76.53-1.47,1.13-2.06,1.82-.13.15-.21.35-.23.54-.01.18.04.35.19.43,1.42.76,3.52.49,5.6.05-4.81,1.7-9.56,3.71-14.16,6.2-1.6.86-3.16,1.79-4.69,2.76-.67.42-1.34.84-2,1.29-1,.67-1.98,1.38-2.96,2.09-.98.71-1.96,1.42-2.94,2.1-1.25.85-3.16,2-4.38,3.37-.73.82-1.21,1.71-1.14,2.66h0c0,.08.04.16.09.23.05.07.12.12.21.11,2.27-.14,4.67-.66,7.08-1.4-3.15,1.93-6.3,3.92-9.26,6.16-3.71,2.78-7.2,5.81-10.52,9.18-2.12,2.1-4.99,4.83-5.81,7.78-.06.21-.09.45-.06.63.03.19.13.32.32.31.79-.02,1.63-.16,2.5-.41.87-.25,1.77-.59,2.67-1-1.07,1.03-2.14,2.07-3.17,3.14-3.17,3.24-6.16,6.7-9.05,10.27-1.96,2.5-4.49,5.25-5.72,8.28-.22.53-.25,1.14.14,1.1,1.36-.13,2.97-1.23,4.56-2.39,1.48-1.08,2.9-2.37,4.4-3.58-1.33,1.63-2.61,3.32-3.84,5.03-1.24,1.72-2.44,3.47-3.61,5.25-1.49,2.26-2.91,4.58-4.27,6.93-1.37,2.34-2.68,4.71-3.97,7.07-.58,1.04-1.29,2.25-1.95,3.47-.67,1.22-1.3,2.45-1.73,3.55-.29.74-.48,1.41-.54,1.99-.03.25.01.49.28.27.7-.56,1.44-1.28,2.19-2.08.75-.79,1.51-1.65,2.26-2.46,1.3-1.5,2.58-2.97,3.87-4.45-.75,1.14-1.49,2.29-2.25,3.44-.66,1.01-1.31,2.03-1.96,3.07-2.6,4.14-5.13,8.43-7.43,12.42-1.72,2.99-3.31,5.82-4.7,8.29-.14.25-.2.47,0,.34.43-.29.97-.75,1.56-1.29-1,1.3-2.02,2.62-3,3.9l-.52.65c-.96,1.21-2.85,3.56-4.54,5.53-1.05,1.23-2.04,2.3-2.6,2.91-.23.24-.39.41-.46.49-.04.04-.05.05-.04.04,1.86-1.96,6.03-5.41,8.81-7.64,1.93-1.51,3.78-2.96,5.62-4.4l1.76-1.4c-.49.45-.98.9-1.45,1.35-.13.13-.26.25-.39.37-.48.47-.94.92-1.31,1.32,0,0,0,0,0,0,0,0,0,0,0,0-.29.32-.54.61-.72.86-.13.19.09.14.35,0,1.49-.78,3.12-1.63,4.82-2.51,2.77-1.43,5.46-2.81,8.06-4.16.42-.22.83-.44,1.26-.66,3.4-1.77,6.87-3.59,10.19-5.38,1.19-.64,2.37-1.28,3.55-1.92-1.54,1.14-3.08,2.27-4.65,3.43-.87.66-1.75,1.34-2.57,2.03-.81.69-1.56,1.38-2.13,2.03-.06.06-.08.12-.09.16-.02.12.16.15.35.14h0c1.99-.1,5.29-1.71,8-2.95.39-.18.79-.36,1.15-.52,4.83-2.11,9.59-4.36,14.32-6.68,3.68-1.85,7.23-3.86,10.65-6-1.34,1.28-2.68,2.54-3.85,3.84-1.26,1.41-2.44,2.85-2.67,4.15-.02.13.05.2.15.26.02.01.05.02.08.03.12.04.26.06.43.05,0,0,0,0,0,0h0c.13-.01.27-.03.41-.07,1.26-.33,2.48-.92,3.66-1.57-.02.02-.04.04-.06.06.13-.07.25-.15.37-.22.63-.36,1.25-.73,1.86-1.11.91-.57,1.8-1.13,2.64-1.65,3.77-2.23,7.41-4.58,10.86-7.12,1.14-.83,2.25-1.7,3.35-2.56-.25.41-.48.81-.69,1.22-.63,1.22-1.07,2.42-1.21,3.56-.04.36.47.45.88.4.78-.09,1.56-.33,2.33-.65h0s.05-.02.07-.03c1.43-.6,2.82-1.5,4.1-2.37.56-.38,1.1-.75,1.59-1.1,0,0,.02-.01.02-.02,1.82-1.25,3.57-2.56,5.25-3.92,1.68-1.37,3.3-2.8,4.86-4.29,1.26-1.19,2.5-2.39,3.73-3.61,1.22-1.22,2.42-2.46,3.59-3.73-.55,1.05-1.05,2.11-1.46,3.17-.42,1.06-.76,2.11-1.01,3.16-.02.08.01.14.07.2.04.06.1.1.17.13,0,0,0,0,0,0h0s.03.03.05.03c.79.25,1.6.07,2.4-.31h0s.01,0,.02,0c1.58-.77,3.09-2.39,4.15-3.42.8-.76,1.63-1.51,2.46-2.26.83-.75,1.65-1.51,2.45-2.28,1.71-1.7,3.4-3.41,5.02-5.16,3.24-3.54,6.1-7.37,8.72-11.38-.43.91-.82,1.83-1.06,2.72-.12.45-.19.88-.22,1.3-.02.42.01.83.11,1.22,0,.02.02.03.03.04.02.04.04.08.08.12h0c.18.18.52.21.79.09,1.51-.7,2.8-1.93,3.94-3.2,1.26-1.4,2.54-2.82,3.81-4.23.21-.23.39-.49.59-.72-.04.05-.07.1-.1.15.7-.8,1.34-1.65,2.01-2.48.68-.84,1.39-1.66,2.05-2.53,1.35-1.79,2.64-3.63,3.88-5.5,2.77-4.3,5.54-8.47,8.12-12.86-.59,1.51-1.15,3.01-1.64,4.52-.05.16-.02.27.04.36.02.02.04.04.06.06.07.06.15.09.25.1.02,0,.02.02.04.02h0c.14,0,.28-.03.41-.11.46-.26.89-.62,1.32-.95l-.03.07c.11-.09.22-.2.33-.29.3-.25.6-.5.89-.77.3-.28.59-.57.88-.87.25-.27.51-.53.75-.82.35-.41.68-.83,1.01-1.25.15-.2.31-.39.46-.59.48-.66.95-1.32,1.38-1.98,2.13-3.27,3.99-6.64,5.85-9.83,3.91-6.83,7.62-13.83,11.47-19.96-.58,1.08-1.13,2.15-1.64,3.26-.71,1.66-1.57,3.38-2.25,5.09-.09.24-.19.49-.29.74l.04-.1c-.54,1.42-1.03,2.94-.86,4,.04.27.52.32.88-.08.98-1.09,1.69-2.31,2.35-3.5.72-1.27,1.38-2.57,2.14-3.81,1.74-2.79,3.52-5.65,5.34-8.59.86-1.37,1.71-2.72,2.55-4.03.85-1.31,1.69-2.59,2.52-3.82-.64,1.22-1.25,2.48-1.76,3.73-.51,1.25-.92,2.49-1.17,3.67-.02.09,0,.14.06.15.1.03.32-.07.53-.22.11-.08.21-.17.3-.27,2.21-2.42,3.69-5.15,4.95-7.21,1.57-2.69,3.52-4.92,5.38-7.18.79-.91,1.56-1.76,2.35-2.59,1.56-.07,3.07.18,4.47.93,0,.02,0,.04,0,.07,0,.08.02.17.03.25-.84,2.11-1.36,3.38-1.3,3.21,0,0,0,0,0,0,0,0,0,.01,0,0,.38-.91.83-1.93,1.32-3.04.08.66.17,1.36.29,2.07,1.23,32.97,4.53,135.01-.41,170.22,0,0-2.97,7.04,1.48,9.38,1.88.99,3.47,1.53,4.71,1.5,1.24.02,2.83-.51,4.71-1.5,4.45-2.35,1.48-9.38,1.48-9.38-4.95-35.21-1.65-137.26-.41-170.22.14-.87.24-1.73.34-2.5,0-.02,0-.04,0-.07.72-.38,1.47-.61,2.23-.76.84.9,1.65,1.84,2.49,2.83.93,1.15,1.88,2.3,2.79,3.5.91,1.2,1.79,2.46,2.56,3.82,1.26,2.09,2.73,4.86,4.93,7.3.35.39.96.69.88.33-.38-1.8-1.12-3.73-2.01-5.63-.3-.63-.61-1.26-.93-1.88,1.66,2.5,3.35,5.18,5.06,7.95,1.82,2.96,3.6,5.84,5.34,8.66.75,1.27,1.42,2.56,2.13,3.84.66,1.19,1.37,2.42,2.35,3.5.09.1.19.17.28.22.1.05.19.07.28.07.17,0,.3-.08.32-.22.09-.62-.03-1.39-.26-2.2-.23-.82-.55-1.68-.87-2.47-.34-.86-.73-1.72-1.12-2.58-.39-.86-.78-1.71-1.14-2.54-.5-1.13-1.06-2.2-1.64-3.29,3.84,6.18,7.58,13.2,11.49,20.04.93,1.59,1.86,3.24,2.83,4.89.97,1.65,1.97,3.31,3.04,4.94.47.71.97,1.43,1.5,2.13,1.58,2.11,3.41,4.08,5.52,5.27.41.23.98.07.81-.44-.5-1.51-1.06-3.01-1.66-4.51,2.6,4.37,5.39,8.53,8.19,12.8,2.6,3.87,5.4,7.58,8.5,10.99,1.28,1.4,2.57,2.81,3.84,4.2.58.62,1.19,1.24,1.85,1.79.66.55,1.36,1.02,2.12,1.36.34.15.81.07.89-.25.1-.39.13-.79.1-1.22-.08-1.26-.65-2.66-1.31-4.01,2.66,3.98,5.55,7.78,8.83,11.28,1.65,1.73,3.34,3.43,5.07,5.11,1.61,1.54,3.34,2.98,4.96,4.49.81.77,1.87,1.88,3.03,2.71.29.21.58.39.88.55.9.48,1.82.71,2.7.42.07-.02.15-.07.21-.14.06-.06.09-.14.07-.22h0c-.39-1.57-.99-3.15-1.74-4.72-.25-.52-.52-1.05-.8-1.57,1.18,1.26,2.4,2.48,3.63,3.68,1.24,1.2,2.49,2.39,3.76,3.58,3.16,2.96,6.54,5.65,10.21,8.12.87.58,1.83,1.26,2.84,1.9.67.43,1.37.83,2.08,1.18.71.35,1.43.64,2.16.83.36.1.72.17,1.09.2.41.05.93-.04.88-.41h0c-.05-.38-.14-.77-.25-1.16-.34-1.17-.95-2.39-1.7-3.61,1.11.86,2.23,1.72,3.38,2.54,1.74,1.26,3.52,2.47,5.35,3.64,1.83,1.17,3.69,2.31,5.58,3.42,1.3.77,2.66,1.69,4.08,2.51,1.42.82,2.9,1.55,4.43,1.96.13.04.27.06.4.07.39.03.71-.06.66-.34-.24-1.3-1.45-2.73-2.71-4.14-1.19-1.3-2.54-2.55-3.89-3.82,3.44,2.13,7,4.12,10.69,5.96,2.37,1.15,4.75,2.29,7.13,3.4,2.39,1.11,4.78,2.2,7.19,3.26.72.31,1.5.68,2.31,1.06.41.19.82.38,1.23.56.83.37,1.66.73,2.45,1.04,1.18.45,2.27.78,3.12.82.25.01.48-.04.25-.3-.58-.66-1.32-1.35-2.14-2.04-.82-.69-1.7-1.38-2.57-2.04-1.57-1.16-3.11-2.3-4.65-3.44,1.18.64,2.36,1.28,3.55,1.92,7.38,3.91,15.1,7.99,24.16,12.79.26.14.48.19.34,0-.3-.42-.77-.95-1.32-1.52,1.34.95,2.65,1.9,3.93,2.93l.65.52c.9.73,2.47,1.95,4,3.24.51.43,1.02.87,1.5,1.31.97.86,1.83,1.68,2.44,2.27.61.59.96.96.91.92-1.87-1.95-5.27-6.15-7.53-8.92-1.54-1.91-3.02-3.74-4.51-5.57l-1.44-1.74c.47.48.94.96,1.4,1.43.13.13.25.24.37.37.48.48.95.92,1.36,1.29,0,0,0,0,0,0,0,0,0,0,0,0,.32.28.62.52.88.7.19.13.14-.09,0-.35-1.12-2.05-2.4-4.35-3.76-6.77-.17-.3-.34-.6-.51-.91-.27-.48-.54-.95-.82-1.44-.29-.51-.58-1.01-.87-1.52-.3-.52-.59-1.03-.9-1.55-.22-.38-.44-.76-.67-1.14-.4-.68-.8-1.36-1.2-2.04-.1-.17-.2-.34-.31-.51-1.62-2.72-3.3-5.45-5-8.06-.75-1.15-1.5-2.3-2.25-3.45,1.28,1.48,2.56,2.95,3.86,4.45.74.82,1.5,1.67,2.25,2.46.75.79,1.48,1.51,2.18,2.07.05.04.07.04.11.06.02,0,.04.03.06.03.08,0,.12-.07.12-.18,0-.05,0-.12,0-.18-.12-1.16-.78-2.71-1.61-4.33-.03-.07-.07-.13-.1-.19-.81-1.57-1.77-3.18-2.52-4.53-2.57-4.74-5.29-9.48-8.28-14-2.35-3.55-4.82-7-7.5-10.24,1.52,1.19,2.94,2.47,4.42,3.54,1.59,1.15,3.21,2.22,4.56,2.34.13.01.2-.07.24-.17.01-.03.02-.05.02-.08.02-.12.03-.27,0-.44h0c-.03-.13-.07-.28-.13-.41-.51-1.25-1.27-2.44-2.09-3.59.02.02.04.04.07.06-.09-.12-.18-.23-.27-.35-.43-.58-.86-1.15-1.31-1.71-.73-.92-1.46-1.82-2.15-2.65-2.9-3.55-5.92-6.98-9.11-10.2-1.04-1.07-2.12-2.09-3.19-3.11.8.35,1.59.64,2.36.87.18.05.37.11.55.15.79.2,1.55.32,2.27.33.38,0,.37-.53.25-.95-.37-1.29-1.15-2.53-2.07-3.7-.06-.07-.11-.15-.17-.22-1.15-1.41-2.5-2.7-3.64-3.8-3.35-3.33-6.87-6.33-10.6-9.07-1.5-1.1-3.03-2.14-4.6-3.14-1.56-1-3.15-1.97-4.73-2.91.24.07.47.11.71.17,2.18.6,4.33,1.04,6.39,1.15.08,0,.14-.04.19-.1.05-.06.07-.12.08-.19,0,0,0,0,0,0h0s.02-.04.02-.05c.05-.84-.35-1.63-.96-2.37h0s-.01-.01-.02-.02c-1.21-1.46-3.27-2.7-4.61-3.58-.99-.67-1.98-1.37-2.96-2.07-.99-.7-1.98-1.4-2.98-2.06-1.08-.72-2.18-1.41-3.31-2.08-1.12-.66-2.27-1.29-3.42-1.9-1.16-.61-2.32-1.19-3.49-1.74-3.52-1.66-7.1-3.08-10.72-4.32,2.08.42,4.18.67,5.6-.1.06-.03.09-.09.12-.14-.02,0-.04,0-.06,0,.14-.22.1-.56-.11-.81-1.19-1.36-2.85-2.37-4.49-3.22-1.8-.98-3.75-1.78-5.63-2.65-.26-.12-.52-.22-.78-.33,0,0,.02,0,.02,0-.03-.01-.07-.02-.1-.04-2.14-.94-4.31-1.8-6.49-2.58-.07-.03-.14-.05-.21-.07-2.19-.77-4.39-1.49-6.6-2.13-5.15-1.58-10.62-2.63-15.9-3.61,1.7.04,3.4.06,5.09,0,.18,0,.27-.07.33-.16.02-.02.02-.05.03-.08.03-.08.03-.17,0-.27,0-.02,0-.03,0-.05h-.01c-.05-.13-.14-.26-.27-.37-.46-.35-.98-.64-1.5-.95h.08c-.13-.08-.28-.14-.42-.22-.37-.21-.75-.4-1.14-.59-.4-.19-.8-.37-1.22-.54-.37-.15-.74-.3-1.12-.44-.54-.19-1.09-.37-1.64-.53-.26-.08-.52-.17-.78-.24-.84-.23-1.68-.45-2.5-.63-2.02-.44-4.02-.83-6.01-1.13-1.98-.21-3.99-.42-6.02-.64-8.43-.72-16.39-1.4-23.93-1.78,1.27-.02,2.55-.07,3.82-.15.91-.04,1.86-.05,2.81-.07.95-.02,1.91-.04,2.86-.09.27-.02.54-.04.81-.06h-.11c1.55-.11,3.18-.32,4.08-.93.23-.16.04-.62-.51-.79-1.49-.44-2.95-.58-4.35-.68-1.5-.09-3.02-.19-4.51-.28-3.7-.21-7.26-.34-10.62-.46-3.35-.13-6.55-.25-9.55-.43,2.07-.1,4.21-.32,6.13-.73.64-.14,1.26-.3,1.85-.49.26-.08-.01-.32-.39-.48-.13-.05-.26-.1-.4-.13-3.33-.73-6.49-.61-8.92-.65-3.06-.09-6.26-.15-9.21-.42-.21-.02-.4-.05-.6-.06-1.86-.95-3.48-2.42-3.37-4.45.07-1.2.8-2.43,1.4-3.43.3-.51.65-.98.99-1.46.09-.12.16-.21.23-.29.23-.08.43-.23.55-.5.01-.03,0-.06.01-.09.46-.41.92-.82,1.36-1.25.27-.26.53-.53.8-.79,1.15-.38,2.29-.74,3.43-1.07,2.64-.75,5.3-1.36,8.04-1.9,1.37-.27,2.77-.52,4.2-.77,3.04-.53,6.19-.97,9.37-1.29,3.18-.33,6.4-.55,9.58-.65,5.03-.15,11.48.08,18.22-1.19.54-.1,1.11-.34,1.46-.58.35-.24.48-.48.13-.6-4.73-1.63-10.61-2.36-16.37-2.61,6.23-.38,12.81-.57,19.58-.59,3.47,0,7.01.03,10.61.08,3.48.05,7.01.11,10.59.18,1.51.04,3.01.11,4.5.19,1.49.08,2.98.17,4.48.25,1.4.08,2.82.15,4.26.14,1.44-.01,2.91-.1,4.41-.33.82-.13,1.29-.65,1.3-1.06,0-.14-.05-.26-.15-.35-1.87-1.66-5.8-2.55-9.23-3.19-3.73-.7-7.66-1.05-11.34-1.6-2.51-.35-5.06-.61-7.62-.81,15.22.14,31.33,1.13,47.61,2.56,3.83.32,7.71.64,11.62.96,3.91.28,7.83.46,11.8.56,1.74.03,3.53.04,5.32-.01.9-.03,1.8-.06,2.69-.12,4.48-.28,8.9-1.01,12.7-2.66.9-.39,1.33-1.48.28-1.82-3.1-1.02-6.25-1.86-9.47-2.66,5.18.43,10.37.84,15.55,1.19,5.18.36,10.35.67,15.5.9,2.37.11,4.73.2,7.1.27,2.37.06,4.73.1,7.09.11,4.73.01,9.45-.11,14.15-.4,1.93-.12,3.87-.22,5.8-.33,1.93-.11,3.86-.24,5.79-.41,2.58-.22,5.25-.55,7.7-1.35.82-.27,1.61-.58,2.37-.96.5-.26.9-.79.9-1.26,0-.16-.04-.31-.14-.44-1.44-1.92-3.98-3.09-6.84-3.91-.96-.28-1.95-.51-2.94-.73,7.29.55,14.59.89,21.93.82,2.45-.02,4.9-.1,7.35-.22,4.9-.24,9.8-.64,14.69-1.17,2.26-.25,4.53-.56,6.79-.88,2.26-.32,4.52-.63,6.78-.87,1.71-.17,3.91-.29,6.1-.61,1.46-.22,2.92-.53,4.22-1,1.96-.71,3.57-1.79,4.34-3.48.06-.14.09-.32.07-.49-.02-.17-.1-.32-.25-.4-.98-.5-1.99-.97-3.04-1.41-3.14-1.3-6.56-2.3-10.13-3.09,7.1-.3,14.21-.77,21.32-1.49,4.44-.44,8.85-1.02,13.27-1.75,4.42-.72,8.84-1.59,13.3-2.62,2.82-.64,6.12-1.28,9.28-2.25,3.17-.97,6.2-2.26,8.5-4.19.66-.55,1.25-1.42.63-1.84-1.29-.88-2.82-1.59-4.5-2.17-1.69-.58-3.53-1.03-5.47-1.37,2.88-.5,5.77-1,8.65-1.58,8.77-1.71,17.56-3.86,26.4-6.22,2.28-.62,4.74-1.18,7.22-1.81,1.87-.48,3.74-1,5.57-1.61,1.41-.47,2.8-.99,4.11-1.6.76-.35,1.49-.73,2.21-1.14.75-.42,1.39-1.04,1.39-1.5,0-.15-.08-.29-.24-.39-.29-.18-.6-.35-.94-.5-.34-.15-.69-.28-1.07-.39-.75-.23-1.58-.4-2.47-.53-1.76-.26-3.74-.35-5.72-.4-3.69-.08-7.55.2-11.43.38,4.11-1.04,8.22-2.16,12.32-3.37,4.11-1.21,8.21-2.49,12.32-3.84,5.23-1.75,10.46-3.57,15.68-5.43,5.22-1.86,10.43-3.77,15.61-5.69,3.85-1.42,8.88-2.99,12.98-4.71,2.46-1.04,4.59-2.13,5.93-3.28.39-.34.67-.74-.07-.78-.93-.05-1.94-.06-3-.03-2.11.06-4.42.27-6.75.53-1.16.13-2.33.27-3.47.41-4.02.53-8.08,1.13-12.14,1.75l8.21-2.33c13.54-3.91,27.67-7.98,40.91-11.8,2.8-.81,5.58-1.61,8.29-2.39,2.21-.64,4.39-1.27,6.52-1.88.3-.08.55-.19.66-.28.06-.05.08-.09.06-.13-.02-.04-.09-.07-.21-.09-.24-.04-.51-.07-.79-.1-.35-.04-.72-.07-1.12-.1-.72-.05-1.52-.07-2.37-.09,3.45-.54,6.87-1.06,10.35-1.49l1.76-.21c.8-.1,1.79-.22,2.93-.35,1.7-.21,3.71-.45,5.82-.7,2.11-.25,4.31-.52,6.4-.77,1.47-.19,2.86-.36,4.12-.56,1.09-.17,2.09-.35,2.91-.56.43-.11.83-.24,1.15-.39.21-.09.37-.2.51-.32.02-.02.05-.03.07-.05.02-.02.04-.05.06-.08,0,0,0,0,0,0,0,0,0,0,0,0ZM428.92,755.64c-.02-.37-.08-.77-.15-1.17-.09-.52-.2-1.05-.36-1.61-.84-2.99-2.6-6.57-4.44-10.14-2.38-4.39-5.24-8.8-7.98-13.32,3.62,4.43,7.51,8.69,11.22,13.05,3.71,4.35,7.57,8.62,11.43,12.89,2.52,2.69,5.03,5.38,7.53,8.07,2.47,2.7,4.94,5.4,7.41,8.1,4.93,5.39,10,10.69,15.01,16,1.44,1.6,3.02,3.41,4.65,5.27.41.47.82.93,1.24,1.4,1.24,1.41,2.51,2.82,3.76,4.18.42.45.83.9,1.25,1.33.83.87,1.64,1.7,2.43,2.48,1.98,1.94,3.83,3.53,5.39,4.44.55.32,1.08.47.66-.42-.27-.58-.61-1.21-.92-1.82-1.52-2.99-3.45-6.28-5.51-9.61-.82-1.33-1.66-2.67-2.48-3.98-1.47-2.29-2.95-4.59-4.43-6.89l-4.7-6.81c1.21,1.45,2.44,2.9,3.67,4.35,1.22,1.45,2.43,2.91,3.59,4.38,8.22,10.38,17.34,21,25.29,31.5,2.92,3.72,5.77,7.36,8.58,10.94,1.09,1.39,2.2,2.8,3.27,4.17,3.54,4.82,6.94,9.45,10.16,13.84.24.33.47.6.62.7.15.11.21.05.11-.27-.22-.7-.52-1.52-.88-2.43-.36-.91-.77-1.9-1.23-2.95,1.2,2.01,2.39,4.01,3.56,6.03,1.18,2.01,2.34,4.04,3.49,6.1l1.16,2.08c.46.8,1,1.79,1.58,2.88-.19.26-.32.54-.3.83.03.43.05.86.03,1.29,0,.17-.02.34-.04.51,0,.07-.09.5-.04.3-.04.15-.09.3-.14.45h0s-.04.06-.03.07c0,0-.01.02-.01.02,0,0-.01,0-.02,0-.13,0-.26,0-.39,0-.12,0-.24-.01-.37-.03-.05,0,.09.03-.15-.03,0,0-.01,0-.02,0-.65-.47-1.31-.92-2.02-1.28-.42-.21-.89-.19-1.31-.04-.74-.4-1.45-.88-2.15-1.37-.69-.76-1.38-1.52-2.04-2.3-2.71-3.18-5.22-6.47-7.92-10.02-1.91-2.54-3.84-5.17-5.75-7.86-1.91-2.69-3.8-5.46-5.62-8.25-2.89-4.36-6.34-10.25-11.6-15.41h0c-.73-.73-1.88-1.33-2-.97-.02.05-.01.12.01.22,1.51,4.97,4.34,10.45,7.32,15.61-3.81-5.22-7.8-10.87-12.07-16.62-3.79-5.16-7.86-10.55-12.23-15.97-.55-.68-1.08-1.36-1.64-2.04-2.05-2.57-4.05-5.1-6.09-7.66-.48-.59-.97-1.18-1.48-1.78-1.52-1.78-3.17-3.55-5.17-5.11-.49-.38-1-.53-1.38-.51-.19,0-.35.06-.46.15-.11.09-.17.2-.17.35.07,1.77,1.17,4.05,2.48,6.34.6,1.04,1.24,2.08,1.85,3.08,1.08,1.71,2.24,3.43,3.39,5.13,1.15,1.7,2.3,3.39,3.34,5.05,1.44,2.29,2.94,4.53,4.47,6.75-7.45-9.48-15.55-19.44-24.31-29.46-2.92-3.34-5.91-6.68-8.98-10.02-1.45-1.55-2.93-3.12-4.43-4.68-1.5-1.57-3.03-3.13-4.59-4.69-.8-.79-1.65-1.56-2.47-2.34.09,0,.21.04.28,0,.14-.07.21-.22.2-.46ZM656.33,742.58c-1.52,2.98-2.97,5.95-3.88,8.59-.55,1.58-.9,3.04-.96,4.3,0,0,0,0,0,0-.01.22.07.34.18.41.04.02.08.03.13.04.1.03.23.03.37,0,.06-.01.12-.02.19-.04.09-.03.18-.07.27-.11-.66.61-1.29,1.24-1.94,1.86-4,3.84-7.78,7.79-11.39,11.7-3.05,3.33-6.02,6.66-8.91,9.99-8.69,9.98-16.72,19.9-24.13,29.29,1.51-2.21,3.01-4.42,4.43-6.69.52-.82,1.06-1.65,1.61-2.49,1.66-2.51,3.45-5.07,5.05-7.62.25-.41.51-.83.77-1.25.05-.08.1-.16.14-.23l-.04.06c1.69-2.79,3.32-5.76,3.39-7.93.02-.57-1.04-.73-2.01.03-2.65,2.09-4.69,4.53-6.61,6.86-2.02,2.55-4.01,5.05-6.04,7.61-4.97,6.06-9.54,12.1-13.79,17.84-4.05,5.53-8.07,11.02-12.02,16.41,1.48-2.54,2.92-5.16,4.17-7.75,1.25-2.6,2.32-5.17,3.07-7.62,0,0,0,0,0-.01.07-.26-.07-.34-.32-.29-.17.04-.39.13-.63.26-.35.2-.75.49-1.06.79-5.26,5.11-8.7,10.91-11.58,15.2-3.63,5.51-7.55,10.86-11.38,15.82-2.7,3.48-5.22,6.69-7.95,9.78-.9,1.01-1.81,2.02-2.77,3.01-.28-.02-.56,0-.82.13-.71.35-1.37.81-2.02,1.28,0,0-.01,0-.02,0-.24.05-.09.02-.15.03-.12.01-.24.02-.37.03-.13,0-.26,0-.39,0,0,0-.02,0-.02,0,0,0-.02-.02-.01-.02,0,0-.01-.04-.03-.07t0,0c-.05-.15-.1-.29-.14-.45.05.2-.04-.23-.04-.3-.02-.17-.03-.34-.04-.51-.02-.43,0-.86.03-1.29.04-.5-.32-.99-.81-1.34.96-2.28,1.89-4.57,2.88-6.83.28-.65.59-1.29.88-1.94,2.08-3.72,4.15-7.44,6.25-11.19l3.11-5.64c-.43.89-.87,1.78-1.3,2.67-.1.22-.21.43-.31.65-.88,1.85-1.73,3.65-2.47,5.33-.06.13-.12.27-.18.4-.93,2.11-1.7,4-2.15,5.4-.2.63.26.21.75-.45,2.3-3.08,4.71-6.32,7.17-9.62,2.09-2.76,4.25-5.57,6.51-8.47,2.81-3.55,5.67-7.16,8.6-10.85.72-.91,1.44-1.84,2.17-2.76,4.97-6.21,10.08-12.52,15.17-18.78,2.71-3.34,5.42-6.66,8.08-9.94,1.17-1.47,2.38-2.93,3.61-4.38,1.22-1.45,2.46-2.9,3.67-4.35l-4.69,6.8c-1.48,2.3-2.97,4.59-4.44,6.87-3.29,5.23-6.8,10.82-8.9,15.34-.21.44-.18.63-.02.66.01,0,.04-.01.05,0,.16,0,.39-.09.64-.24,0,0,0,0,0,0,2.5-1.48,5.76-4.67,9.14-8.26.29-.33.6-.67.89-1,1.47-1.61,2.93-3.27,4.36-4.89,1.55-1.74,3.06-3.43,4.41-4.95,10.2-10.53,19.84-21.44,29.94-32.19,3.85-4.28,7.71-8.55,11.39-12.92,3.72-4.35,7.59-8.63,11.18-13.07-2.7,4.52-5.53,8.93-7.91,13.31Z"/>
</svg>