<?xml version="1.0" encoding="UTF-8"?>
<svg id="Capa_1" data-name="Capa 1" xmlns="http://www.w3.org/2000/svg" viewBox="0 0 30 30">
  <defs>
    <style>
      .cls-1 {
        fill: #4c4c4c;
        stroke-width: 0px;
      }
    </style>
  </defs>
  <path class="cls-1" d="M17.29,23.6c-.89.83-1.74,1.62-2.59,2.41-.18.17-.36.34-.54.51-1.53,1.37-3.32.92-4.02-1.02-.51-1.44-1-2.9-1.5-4.35-.37-1.07-.72-2.14-1.12-3.2-.09-.22-.33-.47-.55-.54-1.48-.46-2.98-.86-4.47-1.32-.44-.14-.9-.34-1.26-.62-.72-.56-.74-1.48-.05-2.09.31-.27.69-.48,1.07-.63,8.14-3.16,16.29-6.32,24.43-9.47.28-.11.58-.19.88-.23,1.28-.15,2.28.7,2.19,2.01-.07,1.1-.34,2.19-.56,3.28-1.16,5.83-2.33,11.66-3.5,17.49-.43,2.15-2.21,2.8-3.91,1.43-1.5-1.2-2.98-2.43-4.51-3.68ZM3,14.32v.13c1.48.43,2.97.86,4.44,1.31.37.11.67.07,1.02-.11,4.54-2.37,9.09-4.72,13.64-7.08.17-.09.33-.19.51-.25.4-.14.76-.08,1.01.28.25.35.23.72-.03,1.06-.1.14-.23.26-.34.38-2.7,2.91-5.4,5.82-8.09,8.72-.14.15-.27.31-.46.53.11.07.19.12.27.18,2.64,2.15,5.28,4.31,7.92,6.46.1.08.21.16.33.22.34.2.58.1.72-.26.07-.18.11-.37.15-.55,1.3-6.52,2.6-13.05,3.89-19.58.06-.3,0-.62,0-.93-.31.05-.63.06-.92.17-5.13,1.97-10.25,3.96-15.37,5.94-2.9,1.12-5.79,2.24-8.68,3.37ZM11.37,23.8s.07,0,.11-.01c.19-.79.46-1.57.57-2.37.25-1.76.98-3.23,2.34-4.36.2-.17.37-.39.55-.58,1.26-1.36,2.53-2.72,3.79-4.09-.02-.03-.04-.06-.06-.09-3.18,1.65-6.36,3.3-9.56,4.95.77,2.23,1.52,4.39,2.26,6.55ZM12.9,25.18s.06.05.1.07c.97-.91,1.94-1.82,2.94-2.75-.68-.56-1.31-1.07-1.99-1.62-.37,1.5-.71,2.9-1.05,4.3Z"/>
</svg>