<?xml version="1.0" encoding="UTF-8"?>
<svg id="Capa_1" data-name="Capa 1" xmlns="http://www.w3.org/2000/svg" viewBox="0 0 30 30">
  <defs>
    <style>
      .cls-1 {
        fill: #4c4c4c;
        stroke-width: 0px;
      }
    </style>
  </defs>
  <path class="cls-1" d="M28,15.14c0,1.81,0,3.63,0,5.44-.01,4.11-3.05,7.17-7.16,7.18-3.68,0-7.36,0-11.04,0-4.08,0-7.14-3.05-7.15-7.13-.01-3.69-.01-7.39,0-11.08.01-4.07,3.07-7.12,7.15-7.13,3.68,0,7.36,0,11.04,0,4.1,0,7.14,3.06,7.15,7.18,0,1.85,0,3.69,0,5.54ZM25.74,15.1c0-1.83,0-3.66,0-5.49,0-2.9-2.01-4.92-4.91-4.93-3.68,0-7.36-.01-11.03,0-2.87,0-4.88,2.03-4.88,4.9,0,3.66,0,7.32,0,10.98,0,2.93,2.02,4.93,4.96,4.93,3.65,0,7.29,0,10.94,0,2.93,0,4.93-2.02,4.94-4.95,0-1.81,0-3.63,0-5.44Z"/>
  <path class="cls-1" d="M15.32,21.62c-3.6,0-6.55-2.96-6.53-6.56.02-3.58,2.95-6.5,6.53-6.5,3.6,0,6.55,2.96,6.53,6.56-.02,3.58-2.95,6.5-6.53,6.5ZM15.34,10.82c-2.37,0-4.28,1.9-4.28,4.27,0,2.35,1.89,4.25,4.23,4.27,2.37.02,4.3-1.88,4.31-4.25.01-2.37-1.89-4.29-4.26-4.29Z"/>
  <path class="cls-1" d="M23.77,8.32c0,.91-.74,1.63-1.64,1.62-.9,0-1.64-.74-1.64-1.64,0-.91.76-1.66,1.68-1.65.9.01,1.62.75,1.61,1.66Z"/>
</svg>