<?xml version="1.0" encoding="UTF-8"?>
<svg id="Capa_1" data-name="Capa 1" xmlns="http://www.w3.org/2000/svg" viewBox="0 0 30 30">
  <defs>
    <style>
      .cls-1 {
        fill: #4c4c4c;
        stroke-width: 0px;
      }
    </style>
  </defs>
  <path class="cls-1" d="M12.24,12.02v4c-.15.03-.3.06-.45.08-1.96.27-3.42,2.02-3.25,3.92.18,2.09,1.86,3.59,3.91,3.51,1.98-.08,3.55-1.75,3.55-3.77,0-5.4,0-10.8,0-16.2,0-.21,0-.41,0-.68,1.18,0,2.3,0,3.43.01.13,0,.3.16.38.29,1.28,2.09,2.91,3.85,4.94,5.23.11.08.24.24.24.36.02,1.39.01,2.78.01,4.23-1.91-.55-3.47-1.56-4.96-2.97,0,.32,0,.5,0,.68,0,3.04.01,6.07,0,9.11-.02,3.95-2.91,7.18-6.86,7.7-3.77.5-7.41-1.97-8.44-5.72-1.3-4.74,2.21-9.56,7.12-9.79.1,0,.21,0,.38,0Z"/>
</svg>